<?xml version="1.0" encoding="UTF-8"?>
<!DOCTYPE svg PUBLIC "-//W3C//DTD SVG 1.1//EN" "http://www.w3.org/Graphics/SVG/1.1/DTD/svg11.dtd">
<!-- Creator: CorelDRAW -->
<svg xmlns="http://www.w3.org/2000/svg" xml:space="preserve" width="2345px" height="766px" version="1.1" style="shape-rendering:geometricPrecision; text-rendering:geometricPrecision; image-rendering:optimizeQuality; fill-rule:evenodd; clip-rule:evenodd"
viewBox="0 0 2609.49 851.98"
 xmlns:xlink="http://www.w3.org/1999/xlink"
 xmlns:xodm="http://www.corel.com/coreldraw/odm/2003">
 <defs>
  <style type="text/css">
   <![CDATA[
    .fil0 {fill:none}
    .fil1 {fill:url(#id0)}
    .fil2 {fill:url(#id1)}
   ]]>
  </style>
  <linearGradient id="id0" gradientUnits="userSpaceOnUse" x1="919.65" y1="441.72" x2="353.65" y2="404.92">
   <stop offset="0" style="stop-opacity:1; stop-color:#EE3A4C"/>
   <stop offset="0.34902" style="stop-opacity:1; stop-color:#F16350"/>
   <stop offset="0.670588" style="stop-opacity:1; stop-color:#EE374C"/>
   <stop offset="1" style="stop-opacity:1; stop-color:#FEC15B"/>
  </linearGradient>
  <linearGradient id="id1" gradientUnits="userSpaceOnUse" x1="3260.7" y1="280.08" x2="776.43" y2="504.88">
   <stop offset="0" style="stop-opacity:1; stop-color:#5F5EA7"/>
   <stop offset="0.34902" style="stop-opacity:1; stop-color:#AD4999"/>
   <stop offset="0.670588" style="stop-opacity:1; stop-color:#EE374C"/>
   <stop offset="1" style="stop-opacity:1; stop-color:#FEC15B"/>
  </linearGradient>
 </defs>
 <g id="Layer_x0020_1">
  <metadata id="CorelCorpID_0Corel-Layer"/>
  <rect class="fil0" width="2609.49" height="851.98"/>
  <g id="_105553352095072">
   <path class="fil1" d="M513.04 514.3c-13.46,18.44 -32.68,44.55 -54.88,48.44 -101.42,17.76 -57.42,-225.38 26.45,-267.9 50.65,-25.67 106.68,36.59 122.77,71.32 -6.46,18.88 -77.38,124.93 -94.34,148.14zm-137.52 91.88c38.61,33.78 95.87,30.73 129.67,6.79 20.74,-14.69 36.85,-34.57 52.88,-56.86 30.35,-42.17 55.03,-92.25 81.6,-137.62 13.37,8.53 38.43,57.53 46.58,71.32 14.04,23.77 27.82,48.08 46.49,72.47 18.65,24.37 36,45.9 61.03,58.09 28.11,13.69 74.92,14.18 98.44,-2.07 81.5,-34.93 63.03,-209.7 21,-292.79 -63.43,-125.42 -155.43,-114.2 -203.01,-83.74 -25.6,16.39 -42.2,43.67 -60.12,62.04 -10.33,-10.79 -38.58,-51.73 -84.47,-71.69 -20.29,-8.82 -43.19,-12.81 -65.26,-10.92 -89.48,7.69 -141.44,110.54 -158.7,187.73 -5.86,26.17 -9.25,58.26 -8.4,88.94 1.11,40.3 11.07,81.02 42.27,108.31zm499.25 -56.09c-45.3,51.95 -97.75,-44.73 -113.25,-69.65l-79.46 -129.95c20.9,-28.88 38.36,-58.22 73.83,-71.1 108.26,-39.34 164.68,218.17 118.88,270.7z"/>
   <path class="fil2" d="M1566.46 463.18c7.39,-89.86 133.66,-101.85 142.83,0.09l-142.83 -0.09zm-479.52 166.44l59.53 0.28 0.19 -279.2 113.25 192.41 49 0.01 110.49 -192.53 0.79 278.98 59.99 0.44 0.14 -368.67 -73.43 0 -123.19 219.95 -123.6 -219.95 -72.93 0 -0.23 368.28zm1189.43 -8.72l0 -284.68 -57.5 0 0 39.86c-21.07,-29.61 -59.78,-48.4 -99.64,-48.4 -80.27,0 -137.78,70.6 -137.78,150.88 0,80.28 57.51,151.45 137.22,151.45 40.42,0 79.13,-19.36 100.2,-48.4l0 39.29 57.5 0zm-57.5 -93.95c-13.1,19.93 -43.84,46.69 -88.82,46.69 -50.67,0 -89.95,-43.84 -89.95,-95.08 0,-51.24 39.28,-94.51 89.95,-94.51 44.98,0 75.72,26.19 88.82,46.69l0 96.21zm-253.22 36.06c-13.73,7.14 -30.2,12.63 -50.52,12.63 -23.62,0 -37.89,-14.83 -37.89,-37.89l0 -136.75 92.8 0 0 -52.17 -92.8 0 0 -79.08 -56.02 0 0 79.08 -48.88 0 0 52.17 48.88 0 0 136.2c0,59.86 33.5,92.81 90.61,92.81 27.46,0 53.82,-9.89 63.71,-14.83l-9.89 -52.17zm-206.31 24.01c-4.3,-9.77 -22.6,-31.82 -30.19,-38.06 -15.48,6.99 -42.28,39.24 -99.98,28.42 -34.02,-6.38 -60.48,-34.03 -63.05,-69.84l201.08 -0.28c8.13,-264.78 -318.58,-185.48 -254.62,28.43 35.25,117.89 187.17,113.41 246.76,51.33z"/>
  </g>
 </g>
</svg>
